<?xml version="1.0" encoding="utf-8"?>
<!-- Generator: Adobe Illustrator 19.2.1, SVG Export Plug-In . SVG Version: 6.00 Build 0)  -->
<svg version="1.1" id="layer" xmlns="http://www.w3.org/2000/svg" xmlns:xlink="http://www.w3.org/1999/xlink" x="0px" y="0px"
	 viewBox="0 0 652 652" style="enable-background:new 0 0 652 652;" xml:space="preserve">
<style type="text/css">
	.st0{fill:#1159A0;}
</style>
<g id="Page-1">
	<g id="logo">
		<g>
			<path id="Fill-1" class="st0" d="M142.1,322c0-16.8-4.8-32.5-13.3-46.4l-6.3,7.1c6.5,11.8,10.2,25.2,10.2,39.3
				c0,11-2.2,21.5-6.3,31.2l6.6,7.5C138.8,348.8,142.1,335.7,142.1,322z M129.2,322c0-13.1-3.3-25.6-9.1-36.6l-27,30.4l30.8,34.6
				C127.3,341.5,129.2,332,129.2,322z M124.4,303.5l-3.3,5.6l5.4,3.6l-6.4,0.9l0.5,6.4l-4.7-4.4l-4.7,4.4l0.5-6.4l-6.4-0.9l5.4-3.6
				l-3.3-5.6l6.2,1.9l2.3-6l2.3,6L124.4,303.5z M112.2,267.9l5.9-6.6c-9.9-11.1-22.4-20.3-36.7-27c-14.4,6.7-26.9,15.9-36.7,27
				l5.9,6.6c8.3-9.7,18.8-17.8,30.9-23.7C93.4,250.1,103.9,258.2,112.2,267.9z M69.7,315.8l-27-30.4c-5.8,11.1-9.1,23.5-9.1,36.6
				c0,10,1.9,19.5,5.4,28.4L69.7,315.8z M55.9,312.8l-3.3,5.6L58,322l-6.4,0.9l0.5,6.4l-4.7-4.4l-4.7,4.4l0.5-6.4l-6.4-0.9l5.4-3.6
				l-3.2-5.6l6.2,1.9l2.3-6l2.3,6L55.9,312.8z M30.1,322c0-14.1,3.7-27.4,10.2-39.3l-6.3-7.1c-8.5,13.9-13.3,29.6-13.3,46.4
				c0,13.7,3.2,26.8,9.1,38.7l6.7-7.5C32.4,343.5,30.1,333,30.1,322z M52.8,270.5l28.6,32.2l28.6-32.2c-7.7-9.1-17.4-16.7-28.6-22.3
				C70.2,253.7,60.5,261.3,52.8,270.5z M77.2,283.9l-6.4-0.9l5.4-3.6l-3.2-5.6l6.2,1.9l2.3-6l2.3,6l6.2-1.9l-3.2,5.6L92,283
				l-6.4,0.9l0.5,6.4l-4.7-4.4l-4.7,4.4L77.2,283.9z M115.1,366.8l-33.7-37.9l-33.7,37.9c8.3,12.1,19.9,22.1,33.7,28.9
				C95.1,388.9,106.7,378.9,115.1,366.8z M86.7,371.2l5.4,3.6l-6.4,0.9l0.5,6.4l-4.7-4.4l-4.7,4.4l0.5-6.4l-6.4-0.9l5.4-3.6
				l-3.3-5.6l6.2,1.9l2.3-6l2.3,6l6.2-1.9L86.7,371.2z M93.3,334.7l3.9,3.3l-1.2,5l4.3-2.7l4.3,2.7l-1.2-5l3.9-3.3l-5.1-0.4
				l-1.9-4.7l-1.9,4.7L93.3,334.7z M45.4,369.4l-6.1,6.8c10.5,13.9,25,25.5,42,33.4c17-8,31.5-19.5,42-33.4l-6.1-6.8
				c-8.9,12.7-21.3,23.2-36,30.4C66.7,392.6,54.3,382.1,45.4,369.4L45.4,369.4z"/>
			<path id="Fill-2" class="st0" d="M599.2,280.8v-0.2c0-1.7,1.5-2.9,4.4-2.9c3.1,0,7.3,1.5,11.5,4l4.6-8.3
				c-4.6-3.1-10.5-4.9-15.9-4.9c-8.6,0-15.6,4.8-15.6,13.5v0.2c0,8.3,6.7,11,12.7,12.8c4.7,1.4,8.8,2.3,8.8,4.9v0.2
				c0,1.9-1.6,3.2-5.1,3.2c-4,0-8.8-1.7-13.4-5.1l-5.2,7.9c5.6,4.4,12.3,6.4,18.3,6.4c9.2,0,16.3-4.3,16.3-13.7v-0.2
				c0-7.8-6.9-10.6-12.9-12.6C603.2,284.3,599.2,283.2,599.2,280.8z M585.9,266.8V256h-12.8v12.7h4.9c0.3,3.6-1.4,6.1-4.9,7.2v5.5
				C581.4,280.8,585.9,276.5,585.9,266.8z M554.2,311.9l13.3-42.9h-12l-7,25.9l-8.1-26H530l-8,26l-6.8-25.8h-12.2l13.1,42.9h10.8
				l8.3-26.1l8.2,26.1H554.2z M500,294.5c0.1-1.1,0.2-2.2,0.2-3.2c0-12.1-6.5-23.1-20.7-23.1c-12.4,0-21,10-21,22.1v0.2
				c0,13,9.4,22,22.2,22c7.7,0,13.4-3,17.4-7.9l-6.9-6.1c-3.3,3.1-6.3,4.4-10.3,4.4c-5.4,0-9.2-2.9-10.4-8.3H500z M488.5,287h-18.2
				c1-5.5,4.2-9.1,9.2-9.1C484.6,278,487.7,281.6,488.5,287z M453.9,280.9h0.6v-12.6c-7.1-0.3-11.1,3.5-13.6,9.4v-8.6h-12.1v42.5
				H441v-15.7C441,285.7,445.9,280.9,453.9,280.9z M407.6,311.6h12.1v-57.9h-12.1v21c-2.9-3.4-6.8-6.4-13.3-6.4
				c-10.1,0-19.4,7.8-19.4,22v0.2c0,14.2,9.4,22,19.4,22c6.3,0,10.3-2.9,13.3-6.9V311.6z M407.8,290.4c0,7.1-4.7,11.7-10.3,11.7
				c-5.6,0-10.4-4.7-10.4-11.7v-0.2c0-7.1,4.8-11.7,10.4-11.7c5.6,0,10.3,4.7,10.3,11.7V290.4z M356,311.6H368v-27.5
				c0-9.8-5.3-15.8-14.4-15.8c-6.1,0-9.7,3.3-12.5,6.8v-6h-12.1v42.5h12.1v-23.7c0-5.7,2.9-8.7,7.5-8.7c4.6,0,7.3,2.9,7.3,8.7V311.6
				z M310.6,311.6h12.8l-23.8-56h-11.3l-23.8,56h12.5l5.1-12.5h23.5L310.6,311.6z M301.1,288.4h-14.8l7.4-18L301.1,288.4z
				 M239.5,279.4h10v-10.3h-10v-10.9h-12.1v10.9h-5.1v10.3h5.1v20.2c0,9.8,5,12.8,12.4,12.8c4,0,7-1,9.5-2.5v-9.7
				c-1.7,1-3.7,1.5-6,1.5c-2.7,0-3.9-1.3-3.9-4.1V279.4z M217.7,295.2V295c0-9.7-6.4-13.7-17.6-16.7c-9.6-2.5-12-3.7-12-7.3v-0.2
				c0-2.7,2.5-4.8,7.1-4.8c4.7,0,9.5,2.1,14.4,5.5l6.4-9.2c-5.6-4.5-12.5-7.1-20.6-7.1c-11.4,0-19.4,6.7-19.4,16.7v0.2
				c0,11,7.2,14.1,18.4,17c9.3,2.4,11.2,4,11.2,7.1v0.2c0,3.3-3,5.2-8,5.2c-6.4,0-11.6-2.6-16.6-6.7l-7.2,8.7
				c6.7,6,15.2,8.9,23.6,8.9C209.3,312.4,217.7,306.2,217.7,295.2L217.7,295.2z"/>
			<path id="Fill-3" class="st0" d="M177.5,389.2h6.3v-25h32.1v25h6.3v-55.6h-6.3v24.7h-32.1v-24.7h-6.3V389.2z M252.4,390.2
				c12.4,0,21.5-9.8,21.5-21.4v-0.2c0-11.6-9-21.3-21.4-21.3c-12.4,0-21.4,9.8-21.4,21.4v0.2C231.1,380.5,240.1,390.2,252.4,390.2z
				 M252.5,384.7c-8.7,0-15.2-7.1-15.2-16v-0.2c0-8.7,6.1-15.9,15-15.9c8.7,0,15.2,7.2,15.2,16v0.2
				C267.6,377.6,261.4,384.7,252.5,384.7z M295.7,390c8.2,0,14.6-4.5,14.6-12.3v-0.2c0-7.4-6.8-9.8-13.2-11.7
				c-5.5-1.7-10.6-3.2-10.6-7.1v-0.2c0-3.4,3.1-6,7.9-6c4,0,8.3,1.5,12.1,4l2.8-4.6c-4.2-2.8-9.8-4.5-14.8-4.5
				c-8.1,0-14,4.7-14,11.7v0.2c0,7.5,7.1,9.8,13.6,11.6c5.4,1.5,10.2,3.1,10.2,7.2v0.2c0,4-3.6,6.5-8.5,6.5c-4.8,0-9.8-1.9-14.2-5.2
				l-3.1,4.4C283.3,387.7,289.8,390,295.7,390z M319.6,402.5h6.4v-21.4c3.3,4.8,8.4,9.1,16.4,9.1c10.3,0,20.4-8.3,20.4-22.2v-0.2
				c0-14.1-10.2-22.2-20.4-22.2c-7.9,0-12.9,4.4-16.4,9.5v-8.6h-6.4V402.5z M341.2,384.4c-7.9,0-15.5-6.6-15.5-16.5v-0.2
				c0-9.8,7.5-16.5,15.5-16.5c8.1,0,15,6.4,15,16.5v0.2C356.2,378.3,349.4,384.4,341.2,384.4z M371.3,337.1h7.3v-7h-7.3V337.1z
				 M371.8,389.2h6.4v-42.7h-6.4V389.2z M405.6,390c3.1,0,5.5-0.7,7.7-1.8v-5.5c-2.2,1.1-4.1,1.5-6.2,1.5c-4.3,0-7.2-1.9-7.2-7.1
				v-25h13.6v-5.6h-13.6v-12.9h-6.4v12.9h-6v5.6h6v25.8C393.5,386.6,398.7,390,405.6,390z M434.1,390.1c7.5,0,12.5-3.5,15.5-7.4v6.4
				h6.1v-26.1c0-5.5-1.5-9.6-4.4-12.5c-3.1-3.1-7.8-4.7-13.8-4.7c-6.2,0-10.8,1.4-15.5,3.6l1.9,5.2c4-1.8,7.9-3.1,13-3.1
				c8,0,12.7,4,12.7,11.7v1.5c-3.8-1.1-7.7-1.8-13.1-1.8c-10.8,0-18.3,4.8-18.3,13.8v0.2C418.1,385.6,426.2,390.1,434.1,390.1z
				 M435.3,385.1c-5.8,0-10.7-3.1-10.7-8.5v-0.2c0-5.4,4.5-8.8,12.5-8.8c5.2,0,9.4,0.9,12.6,1.8v4.1
				C449.6,380.3,443.2,385.1,435.3,385.1z M466.5,389.2h6.4v-60.4h-6.4V389.2z"/>
		</g>
	</g>
</g>
</svg>
